HIERARCHY
ROOT Hips
{
	OFFSET 0.00000 0.00000 0.00000
	CHANNELS 6 Xposition Yposition Zposition Zrotation Yrotation Xrotation 
	JOINT LHipJoint
	{
		OFFSET 0 0 0
		CHANNELS 3 Zrotation Yrotation Xrotation
		JOINT LeftUpLeg
		{
			OFFSET 3.13874 -1.57224 1.49786
			CHANNELS 3 Zrotation Yrotation Xrotation
			JOINT LeftLeg
			{
				OFFSET 2.10955 -5.79594 0.00000
				CHANNELS 3 Zrotation Yrotation Xrotation
				JOINT LeftFoot
				{
					OFFSET 2.41843 -6.64458 0.00000
					CHANNELS 3 Zrotation Yrotation Xrotation
					JOINT LeftToeBase
					{
						OFFSET 0.04713 -0.12948 1.66229
						CHANNELS 3 Zrotation Yrotation Xrotation
						End Site
						{
							OFFSET 0.00000 -0.00000 0.85167
						}
					}
				}
			}
		}
	}
	JOINT RHipJoint
	{
		OFFSET 0 0 0
		CHANNELS 3 Zrotation Yrotation Xrotation
		JOINT RightUpLeg
		{
			OFFSET -3.13988 -1.57224 1.49786
			CHANNELS 3 Zrotation Yrotation Xrotation
			JOINT RightLeg
			{
				OFFSET -2.15006 -5.90725 0.00000
				CHANNELS 3 Zrotation Yrotation Xrotation
				JOINT RightFoot
				{
					OFFSET -2.34496 -6.44273 0.00000
					CHANNELS 3 Zrotation Yrotation Xrotation
					JOINT RightToeBase
					{
						OFFSET -0.08699 -0.23900 1.55223
						CHANNELS 3 Zrotation Yrotation Xrotation
						End Site
						{
							OFFSET -0.00000 -0.00000 0.80281
						}
					}
				}
			}
		}
	}
	JOINT LowerBack
	{
		OFFSET 0 0 0
		CHANNELS 3 Zrotation Yrotation Xrotation
		JOINT Spine
		{
			OFFSET 0.01292 1.96517 -0.16495
			CHANNELS 3 Zrotation Yrotation Xrotation
			JOINT Spine1
			{
				OFFSET 0.02122 1.88666 0.19706
				CHANNELS 3 Zrotation Yrotation Xrotation
				JOINT Neck
				{
					OFFSET 0 0 0
					CHANNELS 3 Zrotation Yrotation Xrotation
					JOINT Neck1
					{
						OFFSET -0.01683 1.81591 0.07903
						CHANNELS 3 Zrotation Yrotation Xrotation
						JOINT Head
						{
							OFFSET 0.00815 1.74013 -0.47700
							CHANNELS 3 Zrotation Yrotation Xrotation
							End Site
							{
								OFFSET -0.00204 1.83225 -0.16933
							}
						}
					}
				}
				JOINT LeftShoulder
				{
					OFFSET 0 0 0
					CHANNELS 3 Zrotation Yrotation Xrotation
					JOINT LeftArm
					{
						OFFSET 3.38482 1.41533 0.19802
						CHANNELS 3 Zrotation Yrotation Xrotation
						JOINT LeftForeArm
						{
							OFFSET 4.32712 -0.00000 0.00000
							CHANNELS 3 Zrotation Yrotation Xrotation
							JOINT LeftHand
							{
								OFFSET 3.28587 -0.00000 -0.00000
								CHANNELS 3 Zrotation Yrotation Xrotation
								JOINT LeftFingerBase
								{
									OFFSET 0 0 0
									CHANNELS 3 Zrotation Yrotation Xrotation
									JOINT LeftHandIndex1
									{
										OFFSET 0.43316 -0.00000 -0.00000
										CHANNELS 3 Zrotation Yrotation Xrotation
										End Site
										{
											OFFSET 0.34922 -0.00000 -0.00000
										}
									}
								}
								JOINT LThumb
								{
									OFFSET 0 0 0
									CHANNELS 3 Zrotation Yrotation Xrotation
									End Site
									{
										OFFSET 0.35456 -0.00000 0.35456
									}
								}
							}
						}
					}
				}
				JOINT RightShoulder
				{
					OFFSET 0 0 0
					CHANNELS 3 Zrotation Yrotation Xrotation
					JOINT RightArm
					{
						OFFSET -3.09725 1.62858 -0.14144
						CHANNELS 3 Zrotation Yrotation Xrotation
						JOINT RightForeArm
						{
							OFFSET -4.29104 -0.00000 0.00000
							CHANNELS 3 Zrotation Yrotation Xrotation
							JOINT RightHand
							{
								OFFSET -3.22720 -0.00000 -0.00000
								CHANNELS 3 Zrotation Yrotation Xrotation
								JOINT RightFingerBase
								{
									OFFSET 0 0 0
									CHANNELS 3 Zrotation Yrotation Xrotation
									JOINT RightHandIndex1
									{
										OFFSET -0.54362 -0.00000 -0.00000
										CHANNELS 3 Zrotation Yrotation Xrotation
										End Site
										{
											OFFSET -0.43828 -0.00000 -0.00000
										}
									}
								}
								JOINT RThumb
								{
									OFFSET 0 0 0
									CHANNELS 3 Zrotation Yrotation Xrotation
									End Site
									{
										OFFSET -0.44497 -0.00000 0.44497
									}
								}
							}
						}
					}
				}
			}
		}
	}
}
MOTION
Frames: 11
Frame Time: .0083333
-9.7727 15.9864 2.9266 -140.8070 -86.4839 148.5250 0.0000 0.0000 0.0000 -22.6946 -27.1940 -15.7689 1.3522 7.3613 20.7904 0.2705 -8.0004 -10.1005 0.2090 -2.9435 -8.1216 0.0000 0.0000 0.0000 27.0200 -2.0370 10.7811 -0.2093 -2.9456 8.1273 -2.5159 -11.1039 -35.5116 -1.3162 7.2666 -20.5076 -1.2415 3.0606 7.1187 3.3190 4.1284 -9.9299 3.6106 2.2090 -15.4104 -3.0392 -2.7438 -21.5284 -4.2151 -1.9380 30.3148 -1.5742 -2.0059 13.9428 -0.0000 0.0000 0.0000 -85.9223 23.7438 6.0188 19.3309 -29.8278 -5.1944 -0.0000 -0.0000 8.2211 33.3507 26.2685 16.2398 -7.1250 0.0000 -0.0000 4.1250 60.5093 1.5614 -0.0000 0.0000 0.0000 64.7832 5.7617 40.8349 -32.8794 43.2371 -13.3394 0.0000 0.0000 19.5101 -35.3021 -22.2115 14.9855 7.1250 -0.0000 -0.0000 -7.1418 -56.4174 2.0065
-9.6535 15.9540 2.8853 -150.9270 -85.9117 158.7640 0.0000 0.0000 0.0000 -22.2797 -27.0586 -16.8400 1.4367 7.5784 21.4405 0.2844 -8.5039 -10.4612 0.2056 -2.9198 -8.0555 0.0000 0.0000 0.0000 27.6393 -0.5183 12.1833 -0.1074 -2.1133 5.8190 -3.2380 -8.5321 -37.7181 -0.3086 3.5713 -9.8737 -1.1208 3.2199 7.0000 3.1336 4.3391 -9.9049 3.2938 2.2782 -15.2900 -2.8037 -2.5734 -21.5524 -4.2880 -1.7571 30.5144 -1.6189 -1.9179 14.0315 0.0000 0.0000 0.0000 -85.6718 23.5094 7.2100 20.0036 -30.6467 -5.5332 -0.0000 -0.0000 7.0482 33.3888 23.1742 14.5406 -7.1250 0.0000 -0.0000 4.8084 57.0585 1.4229 0.0000 0.0000 0.0000 65.3039 5.0495 41.4032 -32.2668 42.7589 -12.9216 0.0000 0.0000 19.2180 -35.6333 -22.1097 15.0985 7.1250 -0.0000 -0.0000 -7.5337 -56.3790 2.1105
-9.5282 15.9253 2.8375 -156.3960 -85.1567 164.3750 0.0000 0.0000 0.0000 -21.5662 -26.8872 -18.0057 1.5263 7.8006 22.1100 0.3082 -9.0037 -10.9446 0.2304 -3.0895 -8.5281 0.0000 0.0000 0.0000 28.2623 0.5564 12.7461 -0.0608 -1.5911 4.3769 -3.5662 -7.9118 -39.0022 -0.0902 1.9372 -5.3320 -0.9294 3.3666 6.8869 3.0220 4.5493 -9.8877 3.0227 2.3449 -15.1818 -2.4598 -2.3655 -21.4772 -4.4237 -1.5472 30.6446 -1.6977 -1.8120 14.0675 0.0000 0.0000 0.0000 -85.3927 23.3642 8.4810 20.8948 -31.7054 -5.9946 -0.0000 -0.0000 6.2097 33.5766 25.6605 16.0376 -7.1250 0.0000 -0.0000 4.5444 59.8921 1.6537 0.0000 0.0000 0.0000 65.8201 4.4242 41.8915 -31.6700 42.2825 -12.5182 0.0000 0.0000 19.1523 -35.7689 -22.1510 15.1963 7.1250 -0.0000 -0.0000 -7.6866 -56.4590 2.1686
-9.3967 15.9000 2.7891 -158.8810 -84.3933 166.9930 0.0000 0.0000 0.0000 -20.7238 -26.8768 -19.0157 1.6037 7.9866 22.6733 0.3416 -9.4066 -11.4978 0.2401 -3.1531 -8.7052 0.0000 0.0000 0.0000 29.0901 1.6438 13.3664 -0.0248 -1.0177 2.7974 -3.7305 -9.6273 -40.6461 -0.1547 2.5341 -6.9843 -0.5812 3.4686 6.8516 2.9257 4.7225 -9.8755 2.6869 2.3780 -15.1113 -2.1838 -2.1331 -21.3915 -4.3863 -1.3328 30.7558 -1.6934 -1.6857 14.0961 -0.0000 -0.0000 0.0000 -85.1335 23.3163 9.7105 21.8163 -32.7687 -6.4861 -0.0000 -0.0000 5.2284 33.6215 25.9123 16.2025 -7.1250 0.0000 -0.0000 4.5420 60.1838 1.6845 -0.0000 -0.0000 0.0000 66.3936 3.8937 42.2242 -31.0981 41.8162 -12.1352 0.0000 0.0000 19.0746 -35.5089 -22.1252 15.0421 7.1250 -0.0000 -0.0000 -7.3888 -56.3674 2.0675
-9.2574 15.8781 2.7396 -160.2310 -83.6264 168.5560 0.0000 0.0000 0.0000 -19.7170 -27.0250 -20.0523 1.6650 8.1303 23.1106 0.3829 -9.6790 -12.0802 0.2371 -3.1334 -8.6505 0.0000 0.0000 0.0000 30.4335 3.7157 14.4302 -0.0037 -0.3936 1.0814 -4.1483 -10.5241 -42.9743 -0.0680 1.6824 -4.6287 -0.1546 3.5592 6.8865 2.7878 4.8863 -9.9355 2.2601 2.3939 -15.1589 -1.8051 -1.9154 -21.3081 -4.3958 -1.1617 30.8387 -1.7325 -1.5714 14.1108 -0.0000 -0.0000 0.0000 -84.7878 23.2521 10.8610 22.6145 -33.6646 -6.9234 -0.0000 -0.0000 4.3091 33.8700 25.5208 16.1290 -7.1250 0.0000 -0.0000 4.9317 59.8114 1.7856 -0.0000 -0.0000 0.0000 67.0166 3.3984 42.4697 -30.5033 41.3209 -11.7405 0.0000 0.0000 18.8516 -35.1198 -21.9286 14.7168 7.1250 -0.0000 -0.0000 -6.9621 -56.0499 1.8936
-9.1165 15.8616 2.6870 -161.3890 -82.8655 170.0070 0.0000 0.0000 0.0000 -18.6231 -27.2139 -21.1529 1.7148 8.2449 23.4604 0.4359 -9.8444 -12.7327 0.2427 -3.1702 -8.7529 0.0000 0.0000 0.0000 31.8090 6.1098 15.5236 -0.0007 0.1709 -0.4695 -4.5039 -11.8767 -45.1732 -0.0336 1.1830 -3.2525 0.3301 3.7037 6.8949 2.5104 5.1152 -10.0644 1.6338 2.4218 -15.2517 -1.3396 -1.7665 -21.0319 -4.3398 -1.1540 30.8157 -1.7818 -1.5042 14.0327 -0.0000 0.0000 0.0000 -84.1240 23.0921 12.1679 23.2701 -34.3829 -7.2903 -0.0000 -0.0000 3.5511 34.0656 25.8563 16.4303 -7.1250 0.0000 -0.0000 5.0993 60.2361 1.8981 -0.0000 0.0000 0.0000 67.8400 2.7794 42.3846 -29.9002 40.8077 -11.3443 0.0000 0.0000 18.6735 -34.8325 -21.4926 14.3029 7.1250 -0.0000 -0.0000 -6.6809 -55.4832 1.7247
-8.9775 15.8490 2.6320 -164.0960 -82.1868 172.9540 0.0000 0.0000 0.0000 -17.8922 -27.4598 -22.0090 1.7451 8.3136 23.6706 0.5145 -9.8780 -13.5904 0.2447 -3.1831 -8.7888 0.0000 0.0000 0.0000 32.9319 8.7070 16.7363 -0.0100 0.6472 -1.7786 -4.8623 -12.9468 -47.1621 -0.0001 0.0750 -0.2061 0.6303 3.8952 6.9233 2.0719 5.3669 -10.1863 0.9246 2.4695 -15.3439 -1.1063 -1.6983 -20.7320 -3.9240 -1.3000 30.8792 -1.6765 -1.4806 13.9890 -0.0000 -0.0000 0.0000 -83.1523 23.1203 14.0121 24.0628 -35.2306 -7.7428 -0.0000 -0.0000 2.6048 34.4286 26.3949 16.9470 -7.1250 0.0000 -0.0000 5.4327 60.9333 2.1127 -0.0000 -0.0000 0.0000 68.7915 1.9567 41.9671 -29.4566 40.4231 -11.0556 0.0000 0.0000 18.6609 -34.9044 -21.1535 14.1325 7.1250 -0.0000 -0.0000 -6.7954 -55.1102 1.6927
-8.8340 15.8416 2.5732 -165.3570 -81.5080 174.3590 0.0000 0.0000 0.0000 -17.0259 -27.6788 -22.6933 1.7597 8.3466 23.7718 0.5984 -9.9022 -14.4574 0.2517 -3.2284 -8.9153 0.0000 0.0000 0.0000 34.2826 11.3709 18.0851 -0.0262 1.0455 -2.8739 -5.3281 -13.4069 -49.1706 -0.0657 -1.6532 4.5481 0.7960 3.9774 7.0586 1.8690 5.4826 -10.2128 0.5746 2.4872 -15.4243 -0.8482 -1.5467 -20.5356 -3.7093 -1.2554 30.8399 -1.6216 -1.3991 13.9270 0.0000 0.0000 0.0000 -82.5428 23.2054 15.5065 24.9318 -36.1342 -8.2497 -0.0000 -0.0000 1.8238 34.7972 26.7334 17.3600 -7.1250 0.0000 -0.0000 5.8238 61.4103 2.3312 0.0000 0.0000 0.0000 69.4176 1.2807 41.9666 -29.1857 40.1851 -10.8804 0.0000 0.0000 18.5802 -35.1935 -21.2389 14.3315 7.1250 -0.0000 -0.0000 -7.1123 -55.2742 1.8007
-8.6910 15.8387 2.5143 -165.0320 -80.8292 174.1420 0.0000 0.0000 0.0000 -15.9280 -27.9600 -23.2360 1.7603 8.3478 23.7755 0.6619 -10.1883 -15.1536 0.2680 -3.3304 -9.2001 0.0000 0.0000 0.0000 36.2573 14.5371 20.0433 -0.0518 1.4689 -4.0401 -6.0313 -13.6206 -51.8179 -0.3493 -3.7975 10.5076 0.9455 3.9302 7.1732 1.9180 5.4480 -10.1680 0.5474 2.4569 -15.4328 -0.4138 -1.2558 -20.2224 -3.8434 -0.9469 30.4800 -1.6790 -1.2265 13.7048 0.0000 0.0000 0.0000 -82.3650 23.0821 16.3561 25.5017 -36.7124 -8.5880 -0.0000 -0.0000 1.3774 34.7157 26.4433 17.1465 -7.1250 0.0000 -0.0000 5.7828 61.0636 2.2673 0.0000 0.0000 0.0000 69.6765 0.8415 42.4652 -28.9798 40.0027 -10.7477 0.0000 0.0000 18.3382 -35.0401 -21.4705 14.3956 7.1250 -0.0000 -0.0000 -6.9174 -55.5055 1.7899
-8.5558 15.8383 2.4556 -165.5210 -80.1991 174.7770 0.0000 0.0000 0.0000 -15.0288 -28.3429 -23.6182 1.7424 8.3076 23.6522 0.7131 -10.4931 -15.7130 0.2513 -3.2259 -8.9082 0.0000 0.0000 0.0000 36.9329 15.6809 20.3384 -0.0645 1.6392 -4.5094 -5.9903 -13.8976 -51.8041 -0.4830 -4.4568 12.3654 0.9491 3.8707 7.1567 1.9359 5.3670 -10.1179 0.5841 2.4211 -15.3604 -0.0486 -0.9476 -20.0467 -3.8618 -0.6215 30.2242 -1.6821 -1.0394 13.5623 -0.0000 -0.0000 0.0000 -82.2338 22.8464 17.0229 25.8356 -37.0459 -8.7884 -0.0000 -0.0000 1.2548 34.3801 26.0007 16.6963 -7.1250 0.0000 -0.0000 5.4570 60.4796 2.0633 -0.0000 -0.0000 0.0000 69.8904 0.3321 42.8376 -28.8751 39.9094 -10.6805 0.0000 0.0000 18.0754 -34.4834 -21.2826 13.9988 7.1250 -0.0000 -0.0000 -6.3108 -55.1631 1.5794
-8.4260 15.8464 2.3947 -165.0600 -79.6115 174.5340 0.0000 0.0000 0.0000 -13.9245 -28.6742 -23.9850 1.7002 8.2115 23.3583 0.7707 -10.6393 -16.2762 0.2249 -3.0525 -8.4249 0.0000 0.0000 0.0000 37.5935 16.5627 20.3828 -0.0788 1.8113 -4.9846 -5.7959 -14.5273 -51.4235 -0.4923 -4.4987 12.4841 1.0300 3.8032 7.0522 2.0109 5.2886 -10.0661 0.6471 2.3825 -15.2282 0.1867 -0.6375 -20.1741 -3.6924 -0.3046 30.2636 -1.6034 -0.8501 13.6136 -0.0000 -0.0000 0.0000 -82.1280 22.6179 17.6807 26.1242 -37.3311 -8.9628 -0.0000 -0.0000 1.3318 33.8925 25.9902 16.4037 -7.1250 0.0000 -0.0000 4.8569 60.3408 1.8197 -0.0000 -0.0000 0.0000 70.0432 -0.2406 43.0616 -28.8002 39.8425 -10.6325 0.0000 0.0000 17.5887 -34.0153 -20.8140 13.4857 7.1250 -0.0000 -0.0000 -5.8421 -54.5223 1.3703
